<?xml version="1.0" encoding="utf-8"?>
<!-- Generator: Adobe Illustrator 25.2.1, SVG Export Plug-In . SVG Version: 6.00 Build 0)  -->
<svg version="1.1" id="Camada_1" xmlns="http://www.w3.org/2000/svg" xmlns:xlink="http://www.w3.org/1999/xlink" x="0px" y="0px"
	 viewBox="0 0 163.6 167.1" style="enable-background:new 0 0 163.6 167.1;" xml:space="preserve">
<style type="text/css">
	.st0{fill:#E5000C;}
	.st1{fill:#FFFFFF;}
	.st2{fill:#01A8D9;}
	.st3{fill:#FDB73F;}
	.st4{fill:#A20005;}
</style>
<path class="st0" d="M130.6,5.3H33C16.8,5.3,3.6,18.6,3.6,34.7v97.6c0,16.2,13.2,29.4,29.4,29.4h97.6c16.2,0,29.4-13.2,29.4-29.4
	V34.7C160,18.6,146.8,5.3,130.6,5.3z"/>
<circle class="st1" cx="59.9" cy="52.8" r="33.4"/>
<circle class="st2" cx="59.9" cy="52.8" r="25.3"/>
<circle class="st1" cx="56.1" cy="64.4" r="3.8"/>
<circle class="st3" cx="117.8" cy="34.2" r="10.7"/>
<path class="st4" d="M160,73.1v15.5h-31.6c-2.2,0-4.2,0.8-5.8,2.1c0,0-0.1,0.1-0.1,0.1l-1,0.8l-15.2,12.4l-4.1,3.4l-0.9,0.8
	c0,0-0.1,0.1-0.1,0.1c-1.5,1-3.3,1.6-5.2,1.6H3.6V95.7h83.9c0.1,0,0.3,0,0.4,0c0.2,0,0.5,0,0.7,0c0.4,0,0.7,0,1.1-0.1
	c1.5-0.2,2.9-0.7,4.1-1.5c0,0,0,0,0.1-0.1c0.4-0.2,0.7-0.5,1-0.8l2.5-2.1l3.2-2.6l16.2-13.1l0.7-0.6c1.5-1.1,3.4-1.8,5.4-1.8H160z"
	/>
<path class="st3" d="M143.1,121.2h-34.5c-3.7,0-6.7,3-6.7,6.7v0c0,3.7,3,6.7,6.7,6.7h34.5c3.7,0,6.7-3,6.7-6.7v0
	C149.8,124.2,146.7,121.2,143.1,121.2z"/>
<path class="st3" d="M132.5,145.1v-34.5c0-3.7-3-6.7-6.7-6.7h0c-3.7,0-6.7,3-6.7,6.7v34.5c0,3.7,3,6.7,6.7,6.7h0
	C129.5,151.8,132.5,148.8,132.5,145.1z"/>
</svg>
